# File created by Blade
# Date/Time:  Wed Apr 08 17:04:22 2015
# Frame Rate: 120.000 fps
#------------------------------------------------------
:FULLY-SPECIFIED
:DEGREES
1815
root 3.529590 36.259458 2.752030 -116.978272 -87.687727 142.247974
Spine -24.623088 0.517640 -4.347969
Head 12.974071 10.275893 2.007473
LeftShoulder -6.684347 11.635228 30.933686
LeftArm 10.559826 -35.783560 -33.433279
LeftForeArm 23.083419 0.000000 2.950470
LeftHand -11.547960 -0.000000 -13.477521
LeftHandThumb1 -26.253704 0.000000 33.147579
RightShoulder -21.454535 -42.023216 -17.313918
RightArm 48.841678 45.873007 47.357148
RightForeArm 4.180951 -0.000000 -1.625425
RightHand -1.616847 -0.000000 16.153719
RightHandThumb1 -24.326973 -0.000000 -32.862282
LeftUpLeg -26.001458 10.259795 -0.166876
LeftLeg 12.273626 -0.000000 -0.000000
LeftFoot -11.039965 6.825986 -14.302814
LeftToeBase 7.562635 -0.000000 -0.000000
RightUpLeg -25.936258 -7.331496 -6.195366
RightLeg 10.666546 -0.000000 -0.000000
RightFoot -11.567129 -1.640430 19.669709
RightToeBase 13.692473 -0.000000 -0.000000
1816
root 3.518734 36.258126 2.742279 -117.459393 -87.683869 142.736952
Spine -24.668931 0.486782 -4.352575
Head 12.974933 10.216772 2.033020
LeftShoulder -6.657390 11.631982 30.945405
LeftArm 10.541373 -35.782979 -33.353145
LeftForeArm 23.031187 -0.000000 2.922822
LeftHand -11.487624 -0.000000 -13.531778
LeftHandThumb1 -26.253704 0.000000 33.147579
RightShoulder -21.443900 -42.061897 -17.316345
RightArm 48.878333 45.877968 47.374847
RightForeArm 4.162972 -0.000000 -1.628235
RightHand -1.678334 -0.000000 16.013358
RightHandThumb1 -24.326973 -0.000000 -32.862282
LeftUpLeg -25.988720 10.267018 -0.142590
LeftLeg 12.272834 -0.000000 -0.000000
LeftFoot -11.056476 6.855100 -14.303238
LeftToeBase 7.579511 -0.000000 -0.000000
RightUpLeg -25.949002 -7.275365 -6.188159
RightLeg 10.711070 -0.000000 -0.000000
RightFoot -11.614732 -1.649402 19.705561
RightToeBase 13.685832 -0.000000 -0.000000
1817
root 3.509262 36.257279 2.731588 -118.151147 -87.683046 143.454785
Spine -24.728619 0.460661 -4.348639
Head 12.933215 10.184987 2.036106
LeftShoulder -6.649536 11.645276 30.947199
LeftArm 10.563904 -35.787774 -33.281959
LeftForeArm 23.046921 -0.000000 2.849929
LeftHand -11.419432 -0.000000 -13.505163
LeftHandThumb1 -26.253704 0.000000 33.147579
RightShoulder -21.428051 -42.072466 -17.327713
RightArm 48.860620 45.858540 47.340759
RightForeArm 4.307682 -0.000000 -1.633406
RightHand -1.639932 -0.000000 16.211477
RightHandThumb1 -24.326973 -0.000000 -32.862282
LeftUpLeg -25.994480 10.272597 -0.106003
LeftLeg 12.273350 -0.000000 -0.000000
LeftFoot -11.071798 6.882086 -14.296191
LeftToeBase 7.564046 -0.000000 -0.000000
RightUpLeg -25.982071 -7.201468 -6.173908
RightLeg 10.749922 -0.000000 -0.000000
RightFoot -11.649262 -1.686058 19.721371
RightToeBase 13.662924 -0.000000 -0.000000
1818
root 3.499834 36.256422 2.720801 -118.681955 -87.690909 144.013965
Spine -24.784512 0.428934 -4.341178
Head 12.912930 10.138639 2.053920
LeftShoulder -6.658794 11.651041 30.948245
LeftArm 10.583986 -35.743576 -33.214170
LeftForeArm 23.046897 0.000000 2.816945
LeftHand -11.402277 -0.000000 -13.519565
LeftHandThumb1 -26.253704 0.000000 33.147579
RightShoulder -21.426811 -42.075772 -17.325366
RightArm 48.851711 45.845214 47.314650
RightForeArm 4.356859 -0.000000 -1.629187
RightHand -1.651941 -0.000000 16.283700
RightHandThumb1 -24.326973 -0.000000 -32.862282
LeftUpLeg -26.003499 10.264231 -0.065553
LeftLeg 12.272451 -0.000000 -0.000000
LeftFoot -11.089500 6.917403 -14.307755
LeftToeBase 7.555087 -0.000000 -0.000000
RightUpLeg -26.018641 -7.161848 -6.146361
RightLeg 10.796326 -0.000000 -0.000000
RightFoot -11.677543 -1.696189 19.716790
RightToeBase 13.639390 -0.000000 -0.000000
1819
root 3.489621 36.256093 2.710351 -119.172434 -87.695513 144.513429
Spine -24.825666 0.399223 -4.340297
Head 12.889301 10.105673 2.073076
LeftShoulder -6.636905 11.656770 30.937269
LeftArm 10.535824 -35.791984 -33.091734
LeftForeArm 23.355257 -0.000000 2.782798
LeftHand -11.116753 -0.000000 -13.734032
LeftHandThumb1 -26.253704 0.000000 33.147579
RightShoulder -21.420589 -42.080835 -17.316780
RightArm 48.840407 45.828610 47.275239
RightForeArm 4.390015 0.000000 -1.645177
RightHand -1.633287 -0.000000 16.311085
RightHandThumb1 -24.326973 -0.000000 -32.862282
LeftUpLeg -25.991818 10.282395 -0.037321
LeftLeg 12.269809 -0.000000 -0.000000
LeftFoot -11.106847 6.941998 -14.345978
LeftToeBase 7.522902 -0.000000 -0.000000
RightUpLeg -26.027208 -7.110212 -6.129888
RightLeg 10.824601 -0.000000 -0.000000
RightFoot -11.713529 -1.706292 19.760198
RightToeBase 13.671856 -0.000000 -0.000000
1820
root 3.480715 36.256168 2.700195 -119.875465 -87.704957 145.226641
Spine -24.869454 0.378435 -4.324690
Head 12.906931 10.068761 2.096921
LeftShoulder -6.634353 11.672806 30.961758
LeftArm 10.586472 -35.701664 -33.116327
LeftForeArm 23.101142 -0.000000 2.819175
LeftHand -11.445150 -0.000000 -13.508584
LeftHandThumb1 -26.253704 0.000000 33.147579
RightShoulder -21.408546 -42.096340 -17.319457
RightArm 48.855268 45.838630 47.285323
RightForeArm 4.377747 0.000000 -1.651683
RightHand -1.601890 -0.000000 16.325731
RightHandThumb1 -24.326973 -0.000000 -32.862282
LeftUpLeg -25.983431 10.294596 0.003993
LeftLeg 12.270304 -0.000000 -0.000000
LeftFoot -11.127070 6.957102 -14.327067
LeftToeBase 7.578183 -0.000000 -0.000000
RightUpLeg -26.036384 -7.072492 -6.096526
RightLeg 10.845857 -0.000000 -0.000000
RightFoot -11.710325 -1.717450 19.760873
RightToeBase 13.590248 -0.000000 -0.000000
